{
  "accessors": [
    {
      "bufferView": 2,
      "componentType": 5126,
      "count": 1895,
      "max": [
        62.57749938964844,
        62.57749938964844,
        106.4102783203125
      ],
      "min": [
        -62.57749938964844,
        -62.57749938964844,
        87.31480407714844
      ],
      "type": "VEC3"
    },
    {
      "bufferView": 2,
      "byteOffset": 22740,
      "componentType": 5126,
      "count": 1895,
      "max": [
        1.0,
        1.0,
        1.0
      ],
      "min": [
        -1.0,
        -1.0,
        -1.0
      ],
      "type": "VEC3"
    },
    {
      "bufferView": 1,
      "componentType": 5126,
      "count": 1895,
      "max": [
        0.982647180557251,
        0.982647180557251
      ],
      "min": [
        0.017352819442749023,
        0.01735284924507141
      ],
      "type": "VEC2"
    },
    {
      "bufferView": 0,
      "componentType": 5125,
      "count": 8400,
      "type": "SCALAR"
    },
    {
      "bufferView": 2,
      "byteOffset": 45480,
      "componentType": 5126,
      "count": 6772,
      "max": [
        64.66168212890625,
        64.66168212890625,
        129.18496704101563
      ],
      "min": [
        -64.66168212890625,
        -64.66168212890625,
        85.23487091064453
      ],
      "type": "VEC3"
    },
    {
      "bufferView": 2,
      "byteOffset": 126744,
      "componentType": 5126,
      "count": 6772,
      "max": [
        1.0,
        1.0,
        1.0
      ],
      "min": [
        -1.0,
        -1.0,
        -1.0
      ],
      "type": "VEC3"
    },
    {
      "bufferView": 1,
      "byteOffset": 15160,
      "componentType": 5126,
      "count": 6772,
      "max": [
        0.9972301721572876,
        0.9967575073242188
      ],
      "min": [
        0.002765178680419922,
        0.0032425224781036377
      ],
      "type": "VEC2"
    },
    {
      "bufferView": 0,
      "byteOffset": 33600,
      "componentType": 5125,
      "count": 25152,
      "type": "SCALAR"
    },
    {
      "bufferView": 2,
      "byteOffset": 208008,
      "componentType": 5126,
      "count": 5480,
      "max": [
        65.93177795410156,
        65.26709747314453,
        103.62336730957031
      ],
      "min": [
        -65.93177795410156,
        -65.26709747314453,
        -2.4283828735351563
      ],
      "type": "VEC3"
    },
    {
      "bufferView": 2,
      "byteOffset": 273768,
      "componentType": 5126,
      "count": 5480,
      "max": [
        0.9986999034881592,
        0.9987256526947021,
        1.0
      ],
      "min": [
        -0.9986999034881592,
        -0.9987256526947021,
        -1.0
      ],
      "type": "VEC3"
    },
    {
      "bufferView": 1,
      "byteOffset": 69336,
      "componentType": 5126,
      "count": 5480,
      "max": [
        0.9979294538497925,
        0.9974448680877686
      ],
      "min": [
        0.002077817916870117,
        0.0025629401206970215
      ],
      "type": "VEC2"
    },
    {
      "bufferView": 0,
      "byteOffset": 134208,
      "componentType": 5125,
      "count": 20736,
      "type": "SCALAR"
    },
    {
      "bufferView": 2,
      "byteOffset": 339528,
      "componentType": 5126,
      "count": 2920,
      "max": [
        64.08836364746094,
        63.44226837158203,
        101.93500518798828
      ],
      "min": [
        -64.08836364746094,
        -63.44226837158203,
        0.0
      ],
      "type": "VEC3"
    },
    {
      "bufferView": 2,
      "byteOffset": 374568,
      "componentType": 5126,
      "count": 2920,
      "max": [
        0.9959801435470581,
        0.9960600733757019,
        1.0
      ],
      "min": [
        -0.9959801435470581,
        -0.9960600733757019,
        -1.0
      ],
      "type": "VEC3"
    },
    {
      "bufferView": 1,
      "byteOffset": 113176,
      "componentType": 5126,
      "count": 2920,
      "max": [
        0.9842588305473328,
        0.9842588305473328
      ],
      "min": [
        0.015741169452667236,
        0.015741169452667236
      ],
      "type": "VEC2"
    },
    {
      "bufferView": 0,
      "byteOffset": 217152,
      "componentType": 5125,
      "count": 13776,
      "type": "SCALAR"
    },
    {
      "bufferView": 3,
      "componentType": 5126,
      "count": 56,
      "max": [
        1.8333333730697632
      ],
      "min": [
        0.0
      ],
      "type": "SCALAR"
    },
    {
      "bufferView": 4,
      "componentType": 5126,
      "count": 56,
      "max": [
        -0.6513097286224365,
        0.242842435836792,
        0.05767516419291496,
        0.7413116097450256
      ],
      "min": [
        -0.7696163058280945,
        -0.15304604172706604,
        -0.030843539163470268,
        0.6108262538909912
      ],
      "type": "VEC4"
    },
    {
      "bufferView": 3,
      "byteOffset": 224,
      "componentType": 5126,
      "count": 56,
      "max": [
        1.8333333730697632
      ],
      "min": [
        0.0
      ],
      "type": "SCALAR"
    },
    {
      "bufferView": 4,
      "byteOffset": 896,
      "componentType": 5126,
      "count": 56,
      "max": [
        0.6248496770858765,
        0.6844156384468079,
        0.5436639785766602,
        0.5251623392105103
      ],
      "min": [
        -0.5963678359985352,
        -0.4851152300834656,
        -0.49173182249069214,
        -0.4972783327102661
      ],
      "type": "VEC4"
    }
  ],
  "animations": [
    {
      "channels": [
        {
          "sampler": 0,
          "target": {
            "node": 4,
            "path": "rotation"
          }
        },
        {
          "sampler": 1,
          "target": {
            "node": 8,
            "path": "rotation"
          }
        }
      ],
      "name": "Take 001",
      "samplers": [
        {
          "input": 16,
          "interpolation": "LINEAR",
          "output": 17
        },
        {
          "input": 18,
          "interpolation": "LINEAR",
          "output": 19
        }
      ]
    }
  ],
  "asset": {
    "extras": {
      "author": "MagicFennec (https://sketchfab.com/uthub)",
      "license": "CC-BY-4.0 (http://creativecommons.org/licenses/by/4.0/)",
      "source": "https://sketchfab.com/3d-models/xmas-gift-move-ut-hub-21-ef7851624b794d0a8d67d25fd97e0a37",
      "title": "Xmas Gift Move  UT-HUB '21"
    },
    "generator": "Sketchfab-12.66.0",
    "version": "2.0"
  },
  "bufferViews": [
    {
      "buffer": 0,
      "byteLength": 272256,
      "name": "floatBufferViews",
      "target": 34963
    },
    {
      "buffer": 0,
      "byteLength": 136536,
      "byteOffset": 272256,
      "byteStride": 8,
      "name": "floatBufferViews",
      "target": 34962
    },
    {
      "buffer": 0,
      "byteLength": 409608,
      "byteOffset": 408792,
      "byteStride": 12,
      "name": "floatBufferViews",
      "target": 34962
    },
    {
      "buffer": 0,
      "byteLength": 448,
      "byteOffset": 818400,
      "name": "floatBufferViews"
    },
    {
      "buffer": 0,
      "byteLength": 1792,
      "byteOffset": 818848,
      "byteStride": 16,
      "name": "floatBufferViews"
    }
  ],
  "buffers": [
    {
      "byteLength": 820640,
      "uri": "scene.bin"
    }
  ],
  "images": [
    {
      "uri": "01_-_Default_baseColor.jpeg"
    }
  ],
  "materials": [
    {
      "doubleSided": true,
      "name": "01_-_Default",
      "pbrMetallicRoughness": {
        "baseColorTexture": {
          "index": 0
        },
        "metallicFactor": 0.0,
        "roughnessFactor": 0.6
      }
    },
    {
      "doubleSided": true,
      "name": "01_-_Default_0",
      "pbrMetallicRoughness": {
        "baseColorFactor": [
          0.1529261519961502,
          0.846873231509858,
          0.6172065624196509,
          1.0
        ],
        "roughnessFactor": 0.707
      }
    }
  ],
  "meshes": [
    {
      "name": "tapa_01 - Default_0",
      "primitives": [
        {
          "attributes": {
            "NORMAL": 1,
            "POSITION": 0,
            "TEXCOORD_0": 2
          },
          "indices": 3,
          "material": 0,
          "mode": 4
        }
      ]
    },
    {
      "name": "tapa_01 - Default_0",
      "primitives": [
        {
          "attributes": {
            "NORMAL": 5,
            "POSITION": 4,
            "TEXCOORD_0": 6
          },
          "indices": 7,
          "material": 1,
          "mode": 4
        }
      ]
    },
    {
      "name": "box_01 - Default_0",
      "primitives": [
        {
          "attributes": {
            "NORMAL": 9,
            "POSITION": 8,
            "TEXCOORD_0": 10
          },
          "indices": 11,
          "material": 1,
          "mode": 4
        }
      ]
    },
    {
      "name": "box_01 - Default_0",
      "primitives": [
        {
          "attributes": {
            "NORMAL": 13,
            "POSITION": 12,
            "TEXCOORD_0": 14
          },
          "indices": 15,
          "material": 0,
          "mode": 4
        }
      ]
    }
  ],
  "nodes": [
    {
      "children": [
        1
      ],
      "matrix": [
        1.0,
        0.0,
        0.0,
        0.0,
        0.0,
        2.220446049250313e-16,
        -1.0,
        0.0,
        0.0,
        1.0,
        2.220446049250313e-16,
        0.0,
        0.0,
        0.0,
        0.0,
        1.0
      ],
      "name": "Sketchfab_model"
    },
    {
      "children": [
        2
      ],
      "matrix": [
        0.009999999776482582,
        0.0,
        0.0,
        0.0,
        0.0,
        0.0,
        0.009999999776482582,
        0.0,
        0.0,
        -0.009999999776482582,
        0.0,
        0.0,
        0.0,
        0.0,
        0.0,
        1.0
      ],
      "name": "ae4a0669a17d484f9c9b6c978cd98c43.fbx"
    },
    {
      "children": [
        3
      ],
      "name": "Object_2"
    },
    {
      "children": [
        4,
        8
      ],
      "name": "RootNode"
    },
    {
      "children": [
        5
      ],
      "name": "tapa",
      "rotation": [
        -0.7071068286895752,
        -0.0,
        0.0,
        0.7071068286895752
      ],
      "scale": [
        1.0486329793930054,
        1.0486329793930054,
        1.0486329793930054
      ]
    },
    {
      "children": [
        6,
        7
      ],
      "matrix": [
        1.0,
        0.0,
        -0.0,
        0.0,
        0.0,
        1.0,
        0.0,
        0.0,
        0.0,
        0.0,
        1.0,
        0.0,
        -3.4696967601776123,
        2.6105329990386963,
        -2.672201156616211,
        1.0
      ],
      "name": "Object_5"
    },
    {
      "mesh": 0,
      "name": "tapa_01 - Default_0"
    },
    {
      "mesh": 1,
      "name": "tapa_01 - Default_0"
    },
    {
      "children": [
        9
      ],
      "name": "box",
      "rotation": [
        -0.5,
        0.5,
        0.5,
        0.5
      ],
      "scale": [
        0.9711269736289978,
        0.981016993522644,
        0.981016993522644
      ]
    },
    {
      "children": [
        10,
        11
      ],
      "matrix": [
        1.0,
        0.0,
        -0.0,
        0.0,
        0.0,
        1.0,
        0.0,
        0.0,
        0.0,
        0.0,
        1.0,
        0.0,
        2.818880081176758,
        3.708843946456909,
        -4.76837158203125e-07,
        1.0
      ],
      "name": "Object_9"
    },
    {
      "mesh": 2,
      "name": "box_01 - Default_0"
    },
    {
      "mesh": 3,
      "name": "box_01 - Default_0"
    }
  ],
  "samplers": [
    {
      "magFilter": 9729,
      "minFilter": 9987,
      "wrapS": 10497,
      "wrapT": 10497
    }
  ],
  "scene": 0,
  "scenes": [
    {
      "name": "Sketchfab_Scene",
      "nodes": [
        0
      ]
    }
  ],
  "textures": [
    {
      "sampler": 0,
      "source": 0
    }
  ]
}
